<svg xmlns="http://www.w3.org/2000/svg" xmlns:xlink="http://www.w3.org/1999/xlink" width="500" zoomAndPan="magnify" viewBox="0 0 375 374.999991" height="500" preserveAspectRatio="xMidYMid meet" version="1.2"><defs><clipPath id="54c2ebfdae"><path d="M 65.664062 60.394531 L 311.46875 60.394531 L 311.46875 251.082031 L 65.664062 251.082031 Z M 65.664062 60.394531 "/></clipPath><clipPath id="8aed91b5d3"><path d="M 110.664062 60.394531 L 266.167969 60.394531 C 278.101562 60.394531 289.546875 65.136719 297.988281 73.578125 C 306.425781 82.015625 311.167969 93.460938 311.167969 105.394531 L 311.167969 206.082031 C 311.167969 218.015625 306.425781 229.460938 297.988281 237.902344 C 289.546875 246.339844 278.101562 251.082031 266.167969 251.082031 L 110.664062 251.082031 C 98.726562 251.082031 87.28125 246.339844 78.84375 237.902344 C 70.402344 229.460938 65.664062 218.015625 65.664062 206.082031 L 65.664062 105.394531 C 65.664062 93.460938 70.402344 82.015625 78.84375 73.578125 C 87.28125 65.136719 98.726562 60.394531 110.664062 60.394531 Z M 110.664062 60.394531 "/></clipPath><clipPath id="ea07f0d183"><path d="M 134.125 95.1875 L 240.875 95.1875 L 240.875 196.734375 L 134.125 196.734375 Z M 134.125 95.1875 "/></clipPath><clipPath id="cee5ccbbec"><path d="M 165.460938 60.394531 L 211.449219 60.394531 L 211.449219 100.058594 L 165.460938 100.058594 Z M 165.460938 60.394531 "/></clipPath><clipPath id="ac814f29c8"><path d="M 185.144531 70.546875 L 187.5 70.546875 L 187.5 85.585938 L 185.144531 85.585938 Z M 185.144531 70.546875 "/></clipPath><clipPath id="ed3b78064d"><path d="M 185 83 L 196 83 L 196 93 L 185 93 Z M 185 83 "/></clipPath><clipPath id="e5d09708d6"><path d="M 185.144531 85.691406 L 186.535156 83.792969 L 195.8125 90.582031 L 194.421875 92.480469 Z M 185.144531 85.691406 "/></clipPath><clipPath id="9e57be4e48"><path d="M 155.058594 112.667969 L 167.351562 112.667969 L 167.351562 127.09375 L 155.058594 127.09375 Z M 155.058594 112.667969 "/></clipPath><clipPath id="789d8d4c6d"><path d="M 172.710938 112.667969 L 185.003906 112.667969 L 185.003906 127.09375 L 172.710938 127.09375 Z M 172.710938 112.667969 "/></clipPath><clipPath id="8e41c70071"><path d="M 190.183594 112.667969 L 202.476562 112.667969 L 202.476562 127.09375 L 190.183594 127.09375 Z M 190.183594 112.667969 "/></clipPath><clipPath id="c66c68f22c"><path d="M 207.835938 112.667969 L 220.128906 112.667969 L 220.128906 127.09375 L 207.835938 127.09375 Z M 207.835938 112.667969 "/></clipPath><clipPath id="c47abd6e99"><path d="M 155.058594 135.511719 L 167.351562 135.511719 L 167.351562 149.9375 L 155.058594 149.9375 Z M 155.058594 135.511719 "/></clipPath><clipPath id="5415a8e11b"><path d="M 172.710938 135.511719 L 185.003906 135.511719 L 185.003906 149.9375 L 172.710938 149.9375 Z M 172.710938 135.511719 "/></clipPath><clipPath id="e84521802c"><path d="M 190.183594 135.511719 L 202.476562 135.511719 L 202.476562 149.9375 L 190.183594 149.9375 Z M 190.183594 135.511719 "/></clipPath><clipPath id="e1eca6a77e"><path d="M 207.835938 135.511719 L 220.128906 135.511719 L 220.128906 149.9375 L 207.835938 149.9375 Z M 207.835938 135.511719 "/></clipPath><clipPath id="30ed5613e1"><path d="M 155.058594 158.410156 L 167.351562 158.410156 L 167.351562 172.835938 L 155.058594 172.835938 Z M 155.058594 158.410156 "/></clipPath><clipPath id="9b46464ff1"><path d="M 172.710938 158.410156 L 185.003906 158.410156 L 185.003906 172.835938 L 172.710938 172.835938 Z M 172.710938 158.410156 "/></clipPath><clipPath id="fea5900dd7"><path d="M 190.183594 158.410156 L 202.476562 158.410156 L 202.476562 172.835938 L 190.183594 172.835938 Z M 190.183594 158.410156 "/></clipPath><clipPath id="5d66bbfeec"><path d="M 207.835938 158.410156 L 220.128906 158.410156 L 220.128906 172.835938 L 207.835938 172.835938 Z M 207.835938 158.410156 "/></clipPath><clipPath id="9d97cc73c6"><path d="M 155.058594 179.671875 L 167.351562 179.671875 L 167.351562 194.09375 L 155.058594 194.09375 Z M 155.058594 179.671875 "/></clipPath><clipPath id="0c429807b4"><path d="M 172.710938 179.671875 L 185.003906 179.671875 L 185.003906 194.09375 L 172.710938 194.09375 Z M 172.710938 179.671875 "/></clipPath><clipPath id="c6ae30582d"><path d="M 190.183594 179.671875 L 202.476562 179.671875 L 202.476562 194.09375 L 190.183594 194.09375 Z M 190.183594 179.671875 "/></clipPath><clipPath id="a3dd5a9c5c"><path d="M 207.835938 179.671875 L 220.128906 179.671875 L 220.128906 194.09375 L 207.835938 194.09375 Z M 207.835938 179.671875 "/></clipPath><clipPath id="52fd9011fb"><path d="M 104.726562 194.71875 L 268.832031 194.71875 L 268.832031 256.238281 L 104.726562 256.238281 Z M 104.726562 194.71875 "/></clipPath></defs><g id="9a025ca161"><g clip-rule="nonzero" clip-path="url(#54c2ebfdae)"><g clip-rule="nonzero" clip-path="url(#8aed91b5d3)"><path style=" stroke:none;fill-rule:nonzero;fill:#ffffff;fill-opacity:1;" d="M 65.664062 60.394531 L 311.46875 60.394531 L 311.46875 251.082031 L 65.664062 251.082031 Z M 65.664062 60.394531 "/></g></g><g clip-rule="nonzero" clip-path="url(#ea07f0d183)"><path style=" stroke:none;fill-rule:nonzero;fill:#4287f5;fill-opacity:1;" d="M 134.125 95.1875 L 240.832031 95.1875 L 240.832031 196.734375 L 134.125 196.734375 Z M 134.125 95.1875 "/></g><g clip-rule="nonzero" clip-path="url(#cee5ccbbec)"><path style=" stroke:none;fill-rule:nonzero;fill:#4287f5;fill-opacity:1;" d="M 165.460938 60.394531 L 211.472656 60.394531 L 211.472656 100.058594 L 165.460938 100.058594 Z M 165.460938 60.394531 "/></g><g clip-rule="nonzero" clip-path="url(#ac814f29c8)"><path style=" stroke:none;fill-rule:nonzero;fill:#ffffff;fill-opacity:1;" d="M 185.144531 70.546875 L 187.5 70.546875 L 187.5 85.589844 L 185.144531 85.589844 Z M 185.144531 70.546875 "/></g><g clip-rule="nonzero" clip-path="url(#ed3b78064d)"><g clip-rule="nonzero" clip-path="url(#e5d09708d6)"><path style=" stroke:none;fill-rule:nonzero;fill:#ffffff;fill-opacity:1;" d="M 185.144531 85.691406 L 186.535156 83.792969 L 195.808594 90.582031 L 194.417969 92.480469 Z M 185.144531 85.691406 "/></g></g><g clip-rule="nonzero" clip-path="url(#9e57be4e48)"><path style=" stroke:none;fill-rule:nonzero;fill:#ffffff;fill-opacity:1;" d="M 155.058594 112.667969 L 167.351562 112.667969 L 167.351562 127.074219 L 155.058594 127.074219 Z M 155.058594 112.667969 "/></g><g clip-rule="nonzero" clip-path="url(#789d8d4c6d)"><path style=" stroke:none;fill-rule:nonzero;fill:#ffffff;fill-opacity:1;" d="M 172.710938 112.667969 L 185.003906 112.667969 L 185.003906 127.074219 L 172.710938 127.074219 Z M 172.710938 112.667969 "/></g><g clip-rule="nonzero" clip-path="url(#8e41c70071)"><path style=" stroke:none;fill-rule:nonzero;fill:#ffffff;fill-opacity:1;" d="M 190.183594 112.667969 L 202.476562 112.667969 L 202.476562 127.074219 L 190.183594 127.074219 Z M 190.183594 112.667969 "/></g><g clip-rule="nonzero" clip-path="url(#c66c68f22c)"><path style=" stroke:none;fill-rule:nonzero;fill:#ffffff;fill-opacity:1;" d="M 207.835938 112.667969 L 220.128906 112.667969 L 220.128906 127.074219 L 207.835938 127.074219 Z M 207.835938 112.667969 "/></g><g clip-rule="nonzero" clip-path="url(#c47abd6e99)"><path style=" stroke:none;fill-rule:nonzero;fill:#ffffff;fill-opacity:1;" d="M 155.058594 135.511719 L 167.351562 135.511719 L 167.351562 149.917969 L 155.058594 149.917969 Z M 155.058594 135.511719 "/></g><g clip-rule="nonzero" clip-path="url(#5415a8e11b)"><path style=" stroke:none;fill-rule:nonzero;fill:#ffffff;fill-opacity:1;" d="M 172.710938 135.511719 L 185.003906 135.511719 L 185.003906 149.917969 L 172.710938 149.917969 Z M 172.710938 135.511719 "/></g><g clip-rule="nonzero" clip-path="url(#e84521802c)"><path style=" stroke:none;fill-rule:nonzero;fill:#ffffff;fill-opacity:1;" d="M 190.183594 135.511719 L 202.476562 135.511719 L 202.476562 149.917969 L 190.183594 149.917969 Z M 190.183594 135.511719 "/></g><g clip-rule="nonzero" clip-path="url(#e1eca6a77e)"><path style=" stroke:none;fill-rule:nonzero;fill:#ffffff;fill-opacity:1;" d="M 207.835938 135.511719 L 220.128906 135.511719 L 220.128906 149.917969 L 207.835938 149.917969 Z M 207.835938 135.511719 "/></g><g clip-rule="nonzero" clip-path="url(#30ed5613e1)"><path style=" stroke:none;fill-rule:nonzero;fill:#ffffff;fill-opacity:1;" d="M 155.058594 158.410156 L 167.351562 158.410156 L 167.351562 172.816406 L 155.058594 172.816406 Z M 155.058594 158.410156 "/></g><g clip-rule="nonzero" clip-path="url(#9b46464ff1)"><path style=" stroke:none;fill-rule:nonzero;fill:#ffffff;fill-opacity:1;" d="M 172.710938 158.410156 L 185.003906 158.410156 L 185.003906 172.816406 L 172.710938 172.816406 Z M 172.710938 158.410156 "/></g><g clip-rule="nonzero" clip-path="url(#fea5900dd7)"><path style=" stroke:none;fill-rule:nonzero;fill:#ffffff;fill-opacity:1;" d="M 190.183594 158.410156 L 202.476562 158.410156 L 202.476562 172.816406 L 190.183594 172.816406 Z M 190.183594 158.410156 "/></g><g clip-rule="nonzero" clip-path="url(#5d66bbfeec)"><path style=" stroke:none;fill-rule:nonzero;fill:#ffffff;fill-opacity:1;" d="M 207.835938 158.410156 L 220.128906 158.410156 L 220.128906 172.816406 L 207.835938 172.816406 Z M 207.835938 158.410156 "/></g><g clip-rule="nonzero" clip-path="url(#9d97cc73c6)"><path style=" stroke:none;fill-rule:nonzero;fill:#ffffff;fill-opacity:1;" d="M 155.058594 179.671875 L 167.351562 179.671875 L 167.351562 194.078125 L 155.058594 194.078125 Z M 155.058594 179.671875 "/></g><g clip-rule="nonzero" clip-path="url(#0c429807b4)"><path style=" stroke:none;fill-rule:nonzero;fill:#ffffff;fill-opacity:1;" d="M 172.710938 179.671875 L 185.003906 179.671875 L 185.003906 194.078125 L 172.710938 194.078125 Z M 172.710938 179.671875 "/></g><g clip-rule="nonzero" clip-path="url(#c6ae30582d)"><path style=" stroke:none;fill-rule:nonzero;fill:#ffffff;fill-opacity:1;" d="M 190.183594 179.671875 L 202.476562 179.671875 L 202.476562 194.078125 L 190.183594 194.078125 Z M 190.183594 179.671875 "/></g><g clip-rule="nonzero" clip-path="url(#a3dd5a9c5c)"><path style=" stroke:none;fill-rule:nonzero;fill:#ffffff;fill-opacity:1;" d="M 207.835938 179.671875 L 220.128906 179.671875 L 220.128906 194.078125 L 207.835938 194.078125 Z M 207.835938 179.671875 "/></g><g clip-rule="nonzero" clip-path="url(#52fd9011fb)"><path style=" stroke:none;fill-rule:nonzero;fill:#4287f5;fill-opacity:1;" d="M 104.726562 194.71875 L 268.855469 194.71875 L 268.855469 256.238281 L 104.726562 256.238281 Z M 104.726562 194.71875 "/></g><g style="fill:#ffffff;fill-opacity:1;"><g transform="translate(142.04335, 250.035317)"><path style="stroke:none" d="M 27.546875 -42.703125 L 27.546875 -34.171875 L 12.84375 -34.171875 L 12.84375 -25.671875 L 26.921875 -25.671875 L 26.921875 -17.140625 L 12.84375 -17.140625 L 12.84375 -8.546875 L 27.546875 -8.546875 L 27.546875 0 L 3.109375 0 L 3.109375 -42.703125 Z M 27.546875 -42.703125 "/></g></g><g style="fill:#ffffff;fill-opacity:1;"><g transform="translate(172.068612, 250.035317)"><path style="stroke:none" d="M 0.421875 -34.171875 L 0.421875 -42.703125 L 30.4375 -42.703125 L 30.4375 -34.171875 L 20.296875 -34.171875 L 20.296875 0 L 10.5625 0 L 10.5625 -34.171875 Z M 0.421875 -34.171875 "/></g></g><g style="fill:#ffffff;fill-opacity:1;"><g transform="translate(202.922154, 250.035317)"><path style="stroke:none" d="M 27.546875 -42.703125 L 27.546875 -34.171875 L 12.84375 -34.171875 L 12.84375 -25.671875 L 26.921875 -25.671875 L 26.921875 -17.140625 L 12.84375 -17.140625 L 12.84375 -8.546875 L 27.546875 -8.546875 L 27.546875 0 L 3.109375 0 L 3.109375 -42.703125 Z M 27.546875 -42.703125 "/></g></g><g style="fill:#ffffff;fill-opacity:1;"><g transform="translate(67.613254, 301.141333)"><path style="stroke:none" d="M 2.484375 -34.21875 L 14.71875 -34.21875 C 18.007812 -34.21875 20.691406 -33.335938 22.765625 -31.578125 C 24.835938 -29.816406 25.875 -27.304688 25.875 -24.046875 C 25.875 -21.535156 25.242188 -19.425781 23.984375 -17.71875 C 22.734375 -16.019531 21.03125 -14.828125 18.875 -14.140625 L 30.640625 0 L 20.734375 0 L 10.28125 -13.515625 L 10.28125 0 L 2.484375 0 Z M 10.28125 -19.03125 L 11.203125 -19.03125 C 11.921875 -19.03125 12.523438 -19.039062 13.015625 -19.0625 C 13.515625 -19.09375 14.082031 -19.191406 14.71875 -19.359375 C 15.351562 -19.523438 15.863281 -19.757812 16.25 -20.0625 C 16.644531 -20.375 16.976562 -20.816406 17.25 -21.390625 C 17.53125 -21.972656 17.671875 -22.675781 17.671875 -23.5 C 17.671875 -24.332031 17.53125 -25.039062 17.25 -25.625 C 16.976562 -26.207031 16.644531 -26.648438 16.25 -26.953125 C 15.863281 -27.253906 15.351562 -27.488281 14.71875 -27.65625 C 14.082031 -27.820312 13.515625 -27.914062 13.015625 -27.9375 C 12.523438 -27.96875 11.921875 -27.984375 11.203125 -27.984375 L 10.28125 -27.984375 Z M 10.28125 -19.03125 "/></g></g><g style="fill:#ffffff;fill-opacity:1;"><g transform="translate(97.302961, 301.141333)"><path style="stroke:none" d="M 22.0625 -34.21875 L 22.0625 -27.375 L 10.28125 -27.375 L 10.28125 -20.5625 L 21.5625 -20.5625 L 21.5625 -13.71875 L 10.28125 -13.71875 L 10.28125 -6.84375 L 22.0625 -6.84375 L 22.0625 0 L 2.484375 0 L 2.484375 -34.21875 Z M 22.0625 -34.21875 "/></g></g><g style="fill:#ffffff;fill-opacity:1;"><g transform="translate(121.353282, 301.141333)"><path style="stroke:none" d="M 2.484375 -34.21875 L 14.96875 -34.21875 C 18.457031 -34.21875 21.28125 -33.316406 23.4375 -31.515625 C 25.59375 -29.722656 26.671875 -27.109375 26.671875 -23.671875 C 26.671875 -20.242188 25.578125 -17.554688 23.390625 -15.609375 C 21.203125 -13.660156 18.394531 -12.6875 14.96875 -12.6875 L 10.28125 -12.6875 L 10.28125 0 L 2.484375 0 Z M 10.28125 -18.90625 L 12.484375 -18.90625 C 14.222656 -18.90625 15.648438 -19.257812 16.765625 -19.96875 C 17.890625 -20.675781 18.453125 -21.832031 18.453125 -23.4375 C 18.453125 -25.0625 17.890625 -26.222656 16.765625 -26.921875 C 15.648438 -27.628906 14.222656 -27.984375 12.484375 -27.984375 L 10.28125 -27.984375 Z M 10.28125 -18.90625 "/></g></g><g style="fill:#ffffff;fill-opacity:1;"><g transform="translate(148.969685, 301.141333)"><path style="stroke:none" d="M 10.53125 -40.46875 L 18.953125 -47.765625 L 22.71875 -43 L 12.859375 -37.28125 Z M 20.984375 -34.21875 L 20.984375 -14.4375 C 20.984375 -11.664062 20.546875 -9.738281 19.671875 -8.65625 C 18.804688 -7.582031 17.390625 -7.046875 15.421875 -7.046875 C 13.460938 -7.046875 12.046875 -7.582031 11.171875 -8.65625 C 10.304688 -9.738281 9.875 -11.664062 9.875 -14.4375 L 9.875 -34.21875 L 2.078125 -34.21875 L 2.078125 -12.15625 C 2.078125 -7.945312 3.207031 -4.765625 5.46875 -2.609375 C 7.738281 -0.453125 11.054688 0.625 15.421875 0.625 C 19.796875 0.625 23.113281 -0.453125 25.375 -2.609375 C 27.644531 -4.765625 28.78125 -7.945312 28.78125 -12.15625 L 28.78125 -34.21875 Z M 20.984375 -34.21875 "/></g></g><g style="fill:#ffffff;fill-opacity:1;"><g transform="translate(179.820442, 301.141333)"><path style="stroke:none" d="M 2.484375 -34.21875 L 13.109375 -34.21875 C 16.316406 -34.21875 18.875 -33.53125 20.78125 -32.15625 C 22.6875 -30.789062 23.640625 -28.570312 23.640625 -25.5 C 23.640625 -22.070312 22.210938 -19.625 19.359375 -18.15625 C 24.234375 -17.300781 26.671875 -14.425781 26.671875 -9.53125 C 26.671875 -6.65625 25.671875 -4.347656 23.671875 -2.609375 C 21.679688 -0.867188 18.945312 0 15.46875 0 L 2.484375 0 Z M 10.28125 -20.8125 L 10.90625 -20.8125 C 12.644531 -20.8125 13.941406 -21.113281 14.796875 -21.71875 C 15.660156 -22.332031 16.09375 -23.332031 16.09375 -24.71875 C 16.09375 -27.039062 14.363281 -28.203125 10.90625 -28.203125 L 10.28125 -28.203125 Z M 10.28125 -6.015625 L 12.734375 -6.015625 C 16.546875 -6.015625 18.453125 -7.285156 18.453125 -9.828125 C 18.453125 -11.347656 17.972656 -12.4375 17.015625 -13.09375 C 16.066406 -13.757812 14.640625 -14.09375 12.734375 -14.09375 L 10.28125 -14.09375 Z M 10.28125 -6.015625 "/></g></g><g style="fill:#ffffff;fill-opacity:1;"><g transform="translate(207.436845, 301.141333)"><path style="stroke:none" d="M 10.28125 -34.21875 L 10.28125 -6.84375 L 22.0625 -6.84375 L 22.0625 0 L 2.484375 0 L 2.484375 -34.21875 Z M 10.28125 -34.21875 "/></g></g><g style="fill:#ffffff;fill-opacity:1;"><g transform="translate(230.865179, 301.141333)"><path style="stroke:none" d="M 10.28125 -34.21875 L 10.28125 0 L 2.484375 0 L 2.484375 -34.21875 Z M 10.28125 -34.21875 "/></g></g><g style="fill:#ffffff;fill-opacity:1;"><g transform="translate(243.636729, 301.141333)"><path style="stroke:none" d="M 20.6875 -7.046875 C 21.875 -7.046875 23.023438 -7.222656 24.140625 -7.578125 C 25.265625 -7.941406 26.09375 -8.289062 26.625 -8.625 L 27.40625 -9.171875 L 30.734375 -2.53125 C 30.617188 -2.445312 30.460938 -2.332031 30.265625 -2.1875 C 30.078125 -2.050781 29.628906 -1.796875 28.921875 -1.421875 C 28.210938 -1.054688 27.457031 -0.734375 26.65625 -0.453125 C 25.863281 -0.179688 24.816406 0.0625 23.515625 0.28125 C 22.210938 0.507812 20.867188 0.625 19.484375 0.625 C 16.304688 0.625 13.289062 -0.15625 10.4375 -1.71875 C 7.59375 -3.28125 5.300781 -5.429688 3.5625 -8.171875 C 1.820312 -10.910156 0.953125 -13.867188 0.953125 -17.046875 C 0.953125 -19.453125 1.460938 -21.757812 2.484375 -23.96875 C 3.503906 -26.175781 4.863281 -28.066406 6.5625 -29.640625 C 8.269531 -31.222656 10.253906 -32.484375 12.515625 -33.421875 C 14.785156 -34.359375 17.109375 -34.828125 19.484375 -34.828125 C 21.703125 -34.828125 23.742188 -34.566406 25.609375 -34.046875 C 27.472656 -33.523438 28.789062 -33 29.5625 -32.46875 L 30.734375 -31.6875 L 27.40625 -25.046875 C 27.21875 -25.210938 26.925781 -25.410156 26.53125 -25.640625 C 26.144531 -25.878906 25.367188 -26.191406 24.203125 -26.578125 C 23.046875 -26.960938 21.875 -27.15625 20.6875 -27.15625 C 18.8125 -27.15625 17.125 -26.851562 15.625 -26.25 C 14.132812 -25.644531 12.953125 -24.84375 12.078125 -23.84375 C 11.210938 -22.851562 10.550781 -21.78125 10.09375 -20.625 C 9.632812 -19.476562 9.40625 -18.3125 9.40625 -17.125 C 9.40625 -14.53125 10.378906 -12.203125 12.328125 -10.140625 C 14.285156 -8.078125 17.070312 -7.046875 20.6875 -7.046875 Z M 20.6875 -7.046875 "/></g></g><g style="fill:#ffffff;fill-opacity:1;"><g transform="translate(274.860684, 301.141333)"><path style="stroke:none" d="M 19.859375 -34.21875 L 33.671875 0 L 25.296875 0 L 22.765625 -6.84375 L 9.75 -6.84375 L 7.21875 0 L -1.15625 0 L 12.640625 -34.21875 Z M 20.109375 -13.6875 L 16.296875 -23.640625 L 16.21875 -23.640625 L 12.40625 -13.6875 Z M 20.109375 -13.6875 "/></g></g></g></svg>